HIERARCHY
ROOT Hips
{
	OFFSET	0.00	0.00	0.00
	CHANNELS 6 Xposition Yposition Zposition Zrotation Xrotation Yrotation
	JOINT LeftUpLeg
	{
		OFFSET	 0.126116	-0.014019	-0.065224
		CHANNELS 3 Zrotation Xrotation Yrotation
		JOINT LeftLeg
		{
			OFFSET	 0.000000	 0.000000	 0.569914
			CHANNELS 3 Zrotation Xrotation Yrotation
			JOINT LeftFoot
			{
				OFFSET	 0.000000	 0.000000	 0.544423
				CHANNELS 3 Zrotation Xrotation Yrotation
				JOINT LeftToeBase
				{
					OFFSET	 0.000000	 0.000000	 0.207117
					CHANNELS 3 Zrotation Xrotation Yrotation
					End Site
					{
						OFFSET	 0.000000	 0.000000	 0.207117
					}
				}
			}
		}
	}
	JOINT RightUpLeg
	{
		OFFSET	-0.124023	-0.008373	-0.065224
		CHANNELS 3 Zrotation Xrotation Yrotation
		JOINT RightLeg
		{
			OFFSET	 0.000000	 0.000000	 0.570047
			CHANNELS 3 Zrotation Xrotation Yrotation
			JOINT RightFoot
			{
				OFFSET	 0.000000	 0.000000	 0.544354
				CHANNELS 3 Zrotation Xrotation Yrotation
				JOINT RightToeBase
				{
					OFFSET	 0.000000	 0.000000	 0.207540
					CHANNELS 3 Zrotation Xrotation Yrotation
					End Site
					{
						OFFSET	 0.000000	 0.000000	 0.207540
					}
				}
			}
		}
	}
	JOINT Spine
	{
		OFFSET	 0.000184	-0.007763	 0.117403
		CHANNELS 3 Zrotation Xrotation Yrotation
		JOINT Spine1
		{
			OFFSET	 0.000000	 0.000000	 0.137269
			CHANNELS 3 Zrotation Xrotation Yrotation
			JOINT Spine2
			{
				OFFSET	 0.000000	 0.000000	 0.156879
				CHANNELS 3 Zrotation Xrotation Yrotation
				JOINT LeftShoulder
				{
					OFFSET	 0.080501	-0.002496	 0.160144
					CHANNELS 3 Zrotation Xrotation Yrotation
					JOINT LeftArm
					{
						OFFSET	 0.000000	 0.000000	 0.164363
						CHANNELS 3 Zrotation Xrotation Yrotation
						JOINT LeftForeArm
						{
							OFFSET	 0.000000	 0.000000	 0.364576
							CHANNELS 3 Zrotation Xrotation Yrotation
							JOINT LeftHand
							{
								OFFSET	 0.000000	 0.000000	 0.360812
								CHANNELS 3 Zrotation Xrotation Yrotation
								JOINT LeftHandIndex1
								{
									OFFSET	 0.000000	 0.000000	 0.086006
									CHANNELS 3 Zrotation Xrotation Yrotation
									JOINT LeftHandIndex2
									{
										OFFSET	 0.000000	 0.000000	 0.047237
										CHANNELS 3 Zrotation Xrotation Yrotation
										JOINT LeftHandIndex3
										{
											OFFSET	-0.004284	-0.000551	 0.038165
											CHANNELS 3 Zrotation Xrotation Yrotation
											End Site
											{
												OFFSET	-0.004284	-0.000551	 0.038165
											}
										}
									}
								}
							}
						}
					}
				}
				JOINT Neck
				{
					OFFSET	 0.000000	 0.000000	 0.176489
					CHANNELS 3 Zrotation Xrotation Yrotation
					JOINT Head
					{
						OFFSET	 0.000000	-0.001747	 0.077940
						CHANNELS 3 Zrotation Xrotation Yrotation
						End Site
						{
							OFFSET	 0.000000	-0.001747	 0.077940
						}
					}
				}
				JOINT RightShoulder
				{
					OFFSET	-0.080363	 0.000306	 0.159706
					CHANNELS 3 Zrotation Xrotation Yrotation
					JOINT RightArm
					{
						OFFSET	 0.000000	 0.000000	 0.164196
						CHANNELS 3 Zrotation Xrotation Yrotation
						JOINT RightForeArm
						{
							OFFSET	 0.000000	 0.000000	 0.365611
							CHANNELS 3 Zrotation Xrotation Yrotation
							JOINT RightHand
							{
								OFFSET	 0.000000	 0.000000	 0.360648
								CHANNELS 3 Zrotation Xrotation Yrotation
								JOINT RightHandIndex1
								{
									OFFSET	 0.000000	 0.000000	 0.069977
									CHANNELS 3 Zrotation Xrotation Yrotation
									JOINT RightHandIndex2
									{
										OFFSET	 0.000000	 0.000000	 0.052305
										CHANNELS 3 Zrotation Xrotation Yrotation
										JOINT RightHandIndex3
										{
											OFFSET	 0.009002	-0.000782	 0.042196
											CHANNELS 3 Zrotation Xrotation Yrotation
											End Site
											{
												OFFSET	 0.009002	-0.000782	 0.042196
											}
										}
									}
								}
							}
						}
					}
				}
			}
		}
	}
}
MOTION
Frames:    8
Frame Time: 0.03333334
-0.642658	-0.121372	 1.250234	-161.263900	 12.059470	 10.137780	 7.535703	-18.567560	 162.453400	-8.905424	-30.858580	-3.579459	-77.019890	 77.423440	 73.329250	-2.385833	 28.452760	 0.000004	 11.910400	-54.037940	-177.777100	-26.751910	-57.918090	-13.527330	 35.984890	 39.592460	-42.739620	 2.384659	 28.388700	-0.000001	 14.350800	-24.428050	-15.993860	 43.476580	 28.358590	 8.374829	 6.577937	-8.702920	-14.372150	-91.776130	 78.527400	 180.000000	 22.175830	 53.414340	-51.033480	-7.607368	 0.034266	-3.328267	 8.150296	-3.040000	-4.292371	-4.131196	 21.524690	 0.986298	-5.167839	 0.733520	 3.519257	-1.378229	 35.397820	-2.634230	-13.963950	 16.414230	-7.947016	-21.848480	 3.425765	 5.069472	 89.782160	 78.203870	 179.999900	 4.620675	 59.089590	-6.086515	-2.760421	-0.035258	 3.316157	 71.718250	 1.832008	 14.803320	 5.715225	 19.176060	-3.692089	 5.027514	 0.245388	-9.378011	-2.350882	 35.473990	 5.254307
-0.642439	-0.120394	 1.250672	-161.419200	 11.732810	 9.929150	 8.561059	-18.244470	 162.701200	-8.753283	-30.623860	-3.476592	-84.728680	 78.633930	 80.554820	-2.385833	 28.452760	 0.000004	 11.789200	-53.614940	-177.698500	-24.072650	-58.159350	-11.244910	 42.144030	 43.604310	-45.888510	 2.384659	 28.388700	-0.000001	 14.064860	-25.055350	-16.592360	 44.042160	 30.405470	 7.613716	 6.336320	-9.600901	-13.939560	-91.776150	 78.527360	 180.000000	 22.132930	 53.426350	-51.010660	-7.228710	 0.030938	-3.328990	 8.423986	-2.885490	-4.406737	-4.131196	 21.524690	 0.986298	-5.167839	 0.733520	 3.519257	-1.378229	 35.397820	-2.634230	-13.997450	 16.295620	-7.816123	-21.872940	 3.377545	 4.847275	 89.782120	 78.203890	 180.000000	 5.231226	 59.100770	-6.551781	-3.420493	-0.040221	 3.313050	 71.668320	 3.035220	 17.105370	 5.715225	 19.176060	-3.692089	 5.027514	 0.245388	-9.378011	-2.350882	 35.473990	 5.254307
-0.641571	-0.119153	 1.251027	-161.825500	 11.543710	 9.819706	 9.856940	-18.091060	 162.880900	-8.442098	-30.382070	-3.292850	-93.919720	 79.490140	 89.186940	-2.385833	 28.452760	 0.000004	 10.693570	-53.411000	-178.180300	-21.221920	-58.219260	-8.800383	 47.939780	 47.375710	-48.949680	 2.384659	 28.388700	-0.000001	 14.164510	-25.430880	-17.003030	 44.442780	 31.694550	 7.279591	 6.156454	-10.116590	-13.720560	-91.776120	 78.527400	 180.000000	 22.058220	 53.422380	-50.992710	-6.770514	 0.027037	-3.328933	 8.744298	-2.701717	-4.541857	-4.131196	 21.524690	 0.986298	-5.167839	 0.733520	 3.519257	-1.378229	 35.397820	-2.634230	-14.022930	 16.258230	-7.701916	-21.887120	 3.284449	 4.622823	 89.782160	 78.203890	 179.999900	 5.939652	 59.140250	-7.046104	-4.230097	-0.046507	 3.310258	 71.326850	 3.718638	 19.357980	 5.715225	 19.176060	-3.692089	 5.027514	 0.245388	-9.378011	-2.350882	 35.473990	 5.254307
-0.639601	-0.118142	 1.250830	-162.965300	 11.901580	 10.156070	 11.430610	-18.680590	 162.774400	-7.760675	-30.357410	-2.943125	-99.298020	 79.481690	 93.798390	-2.385833	 28.452760	 0.000004	 8.885235	-53.966780	-179.502800	-19.249410	-57.913360	-7.087835	 48.905770	 49.776630	-48.263030	 2.384659	 28.388700	-0.000001	 15.517180	-24.985040	-16.856080	 44.067710	 30.327860	 8.690831	 6.196652	-9.274311	-14.313800	-91.776150	 78.527360	 180.000000	 21.932240	 53.311700	-51.058310	-6.241421	 0.022580	-3.328207	 9.085164	-2.502937	-4.694745	-4.131196	 21.524690	 0.986298	-5.167839	 0.733520	 3.519257	-1.378229	 35.397820	-2.634230	-14.008260	 16.533840	-7.702032	-21.855750	 3.071856	 4.497361	 89.782110	 78.203850	 180.000000	 6.565051	 59.289760	-7.353033	-5.200232	-0.054873	 3.309605	 70.192120	 2.359991	 20.307140	 5.715225	 19.176060	-3.692089	 5.027514	 0.245388	-9.378011	-2.350882	 35.473990	 5.254307
-0.638033	-0.116860	 1.250759	-163.472100	 12.159690	 10.007360	 12.303720	-18.856170	 163.061900	-7.100349	-30.176080	-2.593027	-109.292000	 79.923030	 102.945900	-2.385833	 28.452760	 0.000004	 9.329234	-54.102800	-179.083300	-18.426490	-57.689460	-6.371308	 51.123870	 51.129500	-49.486000	 2.384659	 28.388700	-0.000001	 16.226790	-25.025980	-16.396680	 43.987350	 29.956090	 9.128388	 6.200614	-8.955237	-14.680330	-91.776170	 78.527420	-180.000000	 21.920240	 53.259770	-51.192470	-5.928239	 0.019909	-3.329163	 9.304624	-2.362022	-4.797414	-4.131196	 21.524690	 0.986298	-5.167839	 0.733520	 3.519257	-1.378229	 35.397820	-2.634230	-13.949500	 16.747300	-7.750781	-21.823940	 3.016914	 4.652740	 89.782100	 78.203870	 180.000000	 6.813245	 59.309730	-7.325910	-5.796906	-0.059478	 3.307936	 69.454620	 1.739675	 21.234770	 5.715225	 19.176060	-3.692089	 5.027514	 0.245388	-9.378011	-2.350882	 35.473990	 5.254307
-0.635975	-0.114790	 1.250746	-163.786900	 12.479630	 9.482973	 13.140390	-18.838630	 163.717600	-6.208058	-29.792330	-2.117552	-127.765100	 80.214600	 120.267200	-2.385833	 28.452760	 0.000004	 11.353620	-54.020660	-177.371700	-17.968400	-57.428350	-5.965138	 55.181650	 52.244590	-52.492860	 2.384659	 28.388700	-0.000001	 16.835880	-25.414590	-15.544110	 44.048020	 30.092310	 9.123811	 6.174738	-8.843837	-15.047010	-91.776210	 78.527380	-180.000000	 21.952790	 53.234850	-51.410660	-5.618589	 0.017222	-3.330552	 9.540955	-2.200706	-4.912626	-4.131196	 21.524690	 0.986298	-5.167839	 0.733520	 3.519257	-1.378229	 35.397820	-2.634230	-13.837240	 17.012330	-7.851937	-21.778890	 3.039586	 5.051800	 89.782100	 78.203890	 180.000000	 6.966697	 59.257740	-7.102764	-6.413174	-0.065225	 3.309369	 68.653560	 1.286617	 22.561630	 5.715225	 19.176060	-3.692089	 5.027514	 0.245388	-9.378011	-2.350882	 35.473990	 5.254307
-0.633856	-0.112152	 1.250847	-163.617000	 12.633850	 8.483647	 13.726130	-18.359170	 164.737000	-5.413784	-29.170120	-1.688797	-149.294800	 79.607930	 140.864700	-2.385833	 28.452760	 0.000004	 14.680550	-53.376080	-174.460300	-17.781690	-57.239300	-5.794982	 60.924000	 52.697740	-57.244390	 2.384659	 28.388700	-0.000001	 17.081790	-26.059350	-14.339590	 44.291740	 31.023410	 8.274544	 6.117878	-9.167494	-15.087820	-91.776230	 78.527400	-180.000000	 21.959160	 53.259180	-51.593130	-5.376309	 0.015130	-3.331063	 9.752028	-2.046758	-5.018567	-4.131196	 21.524690	 0.986298	-5.167839	 0.733520	 3.519257	-1.378229	 35.397820	-2.634230	-13.661080	 17.135350	-8.000420	-21.750870	 3.221317	 5.694892	 89.782150	 78.203930	 180.000000	 7.010056	 59.155700	-6.734317	-6.793943	-0.067310	 3.306453	 68.194140	 1.081196	 24.316020	 5.715225	 19.176060	-3.692089	 5.027514	 0.245388	-9.378011	-2.350882	 35.473990	 5.254307
-0.631234	-0.108632	 1.251053	-163.066300	 12.709020	 7.037384	 14.306820	-17.509240	 166.109200	-4.609856	-28.236500	-1.258123	-170.171800	 77.498820	 161.033000	-2.385833	 28.452760	 0.000004	 19.152670	-52.067030	-170.569400	-17.743150	-57.042940	-5.749759	 68.551870	 52.433870	-63.638850	 2.384659	 28.388700	-0.000001	 17.185520	-26.894660	-12.639460	 44.689020	 32.396160	 6.776638	 6.049481	-9.734743	-14.955020	-91.776150	 78.527380	 180.000000	 21.941470	 53.320400	-51.764030	-5.145772	 0.013700	-3.329720	 9.971595	-1.882064	-5.130705	-4.131196	 21.524690	 0.986298	-5.167839	 0.733520	 3.519257	-1.378229	 35.397820	-2.634230	-13.420640	 17.178430	-8.198799	-21.734520	 3.534354	 6.579013	 89.782110	 78.203900	 180.000000	 7.030930	 59.004270	-6.248662	-7.066756	-0.069452	 3.306923	 67.911580	 1.001038	 26.563810	 5.715225	 19.176060	-3.692089	 5.027514	 0.245388	-9.378011	-2.350882	 35.473990	 5.254307
